<?xml version="1.0" encoding="utf-8"?>
<!-- Generator: Adobe Illustrator 16.0.0, SVG Export Plug-In . SVG Version: 6.00 Build 0)  -->
<!DOCTYPE svg PUBLIC "-//W3C//DTD SVG 1.1//EN" "http://www.w3.org/Graphics/SVG/1.1/DTD/svg11.dtd">
<svg version="1.1" id="Layer_1" xmlns="http://www.w3.org/2000/svg" xmlns:xlink="http://www.w3.org/1999/xlink" x="0px" y="0px"
	 width="354.33px" height="150.239px" viewBox="0 0 354.33 150.239" enable-background="new 0 0 354.33 150.239"
	 xml:space="preserve">
<rect class="empty" x="48.19" y="11.34" fill="#D1D3D4" width="36.85" height="42.52"/>
<rect class="empty" x="121.89" y="11.34" fill="#D1D3D4" width="36.85" height="42.52"/>
<rect class="empty" x="158.74" y="11.34" fill="#D1D3D4" width="36.85" height="42.52"/>
<rect class="empty" x="232.45" y="11.34" fill="#D1D3D4" width="36.851" height="42.52"/>
<rect class="empty" x="11.34" y="53.86" fill="#D1D3D4" width="36.85" height="42.52"/>
<rect class="empty" x="85.04" y="53.86" fill="#D1D3D4" width="36.85" height="42.52"/>
<rect class="empty" x="195.589" y="53.86" fill="#D1D3D4" width="36.851" height="42.52"/>
<rect class="empty" x="306.15" y="53.86" fill="#D1D3D4" width="36.85" height="42.52"/>
<rect class="empty" x="11.34" y="96.38" fill="#D1D3D4" width="36.85" height="42.52"/>
<rect class="empty" x="48.19" y="96.38" fill="#D1D3D4" width="36.85" height="42.52"/>
<rect class="empty" x="158.74" y="96.38" fill="#D1D3D4" width="36.85" height="42.52"/>
<rect class="empty" x="269.3" y="96.38" fill="#D1D3D4" width="36.85" height="42.52"/>
<g>
	<path d="M352.33,2v146.239H2V2H352.33 M354.33,0H0v150.239h354.33V0L354.33,0z"/>
</g>
<rect class="data" x="11.34" y="11.34" fill="none" stroke="#000000" stroke-linecap="square" stroke-miterlimit="10" width="36.85" height="42.52"/>
<rect class="data" x="48.19" y="11.34" fill="none" stroke="#000000" stroke-linecap="square" stroke-miterlimit="10" width="36.85" height="42.52"/>
<rect class="data" x="85.04" y="11.34" fill="none" stroke="#000000" stroke-linecap="square" stroke-miterlimit="10" width="36.85" height="42.52"/>
<rect class="data" x="121.89" y="11.34" fill="none" stroke="#000000" stroke-linecap="square" stroke-miterlimit="10" width="36.85" height="42.52"/>
<rect class="data" x="158.74" y="11.34" fill="none" stroke="#000000" stroke-linecap="square" stroke-miterlimit="10" width="36.85" height="42.52"/>
<rect class="data" x="195.589" y="11.34" fill="none" stroke="#000000" stroke-linecap="square" stroke-miterlimit="10" width="36.851" height="42.52"/>
<rect class="data" x="232.45" y="11.34" fill="none" stroke="#000000" stroke-linecap="square" stroke-miterlimit="10" width="36.851" height="42.52"/>
<rect class="data" x="269.3" y="11.34" fill="none" stroke="#000000" stroke-linecap="square" stroke-miterlimit="10" width="36.85" height="42.52"/>
<rect class="data" x="306.15" y="11.34" fill="none" stroke="#000000" stroke-linecap="square" stroke-miterlimit="10" width="36.85" height="42.52"/>
<rect class="data" x="11.34" y="53.86" fill="none" stroke="#000000" stroke-linecap="square" stroke-miterlimit="10" width="36.85" height="42.52"/>
<rect class="data" x="48.19" y="53.86" fill="none" stroke="#000000" stroke-linecap="square" stroke-miterlimit="10" width="36.85" height="42.52"/>
<rect class="data" x="85.04" y="53.86" fill="none" stroke="#000000" stroke-linecap="square" stroke-miterlimit="10" width="36.85" height="42.52"/>
<rect class="data" x="121.89" y="53.86" fill="none" stroke="#000000" stroke-linecap="square" stroke-miterlimit="10" width="36.85" height="42.52"/>
<rect class="data" x="158.74" y="53.86" fill="none" stroke="#000000" stroke-linecap="square" stroke-miterlimit="10" width="36.85" height="42.52"/>
<rect class="data" x="195.589" y="53.86" fill="none" stroke="#000000" stroke-linecap="square" stroke-miterlimit="10" width="36.851" height="42.52"/>
<rect class="data" x="232.45" y="53.86" fill="none" stroke="#000000" stroke-linecap="square" stroke-miterlimit="10" width="36.851" height="42.52"/>
<rect class="data" x="269.3" y="53.86" fill="none" stroke="#000000" stroke-linecap="square" stroke-miterlimit="10" width="36.85" height="42.52"/>
<rect class="data" x="306.15" y="53.86" fill="none" stroke="#000000" stroke-linecap="square" stroke-miterlimit="10" width="36.85" height="42.52"/>
<rect class="data" x="11.34" y="96.38" fill="none" stroke="#000000" stroke-linecap="square" stroke-miterlimit="10" width="36.85" height="42.52"/>
<rect class="data" x="48.19" y="96.38" fill="none" stroke="#000000" stroke-linecap="square" stroke-miterlimit="10" width="36.85" height="42.52"/>
<rect class="data" x="85.04" y="96.38" fill="none" stroke="#000000" stroke-linecap="square" stroke-miterlimit="10" width="36.85" height="42.52"/>
<rect class="data" x="121.89" y="96.38" fill="none" stroke="#000000" stroke-linecap="square" stroke-miterlimit="10" width="36.85" height="42.52"/>
<rect class="data" x="158.74" y="96.38" fill="none" stroke="#000000" stroke-linecap="square" stroke-miterlimit="10" width="36.85" height="42.52"/>
<rect class="data" x="195.589" y="96.38" fill="none" stroke="#000000" stroke-linecap="square" stroke-miterlimit="10" width="36.851" height="42.52"/>
<rect class="data" x="232.45" y="96.38" fill="none" stroke="#000000" stroke-linecap="square" stroke-miterlimit="10" width="36.851" height="42.52"/>
<rect class="data" x="269.3" y="96.38" fill="none" stroke="#000000" stroke-linecap="square" stroke-miterlimit="10" width="36.85" height="42.52"/>
<rect class="data" x="306.15" y="96.38" fill="none" stroke="#000000" stroke-linecap="square" stroke-miterlimit="10" width="36.85" height="42.52"/>
</svg>
